<svg width="32" height="32" viewBox="0 0 32 32" fill="none" xmlns="http://www.w3.org/2000/svg">
<g clip-path="url(#clip0)">
<path d="M31.8954 8.06969C31.8056 7.89581 29.6254 3.8125 23.5 3.8125C19.4121 3.8125 17.1081 5.63088 16 6.8955C14.8919 5.63088 12.5879 3.8125 8.5 3.8125C2.37456 3.8125 0.194438 7.89581 0.104625 8.06969C0.035875 8.20269 0 8.35025 0 8.5V27.25C0 27.6849 0.296125 28.0684 0.719375 28.1682L16.125 26.25L31.2806 28.1682C31.7039 28.0684 32 27.6849 32 27.25V8.5C32 8.35025 31.9641 8.20269 31.8954 8.06969Z" fill="url(#paint0_linear)"/>
<path d="M31.8954 26.8197C31.8056 26.6458 29.6255 22.5625 23.5001 22.5625C19.4116 22.5625 17.1079 24.3812 16.0001 25.6458C14.8922 24.3812 12.5886 22.5625 8.50006 22.5625C2.37462 22.5625 0.194496 26.6458 0.104684 26.8197C-0.0455035 27.1103 -0.0333161 27.4582 0.136871 27.7376C0.306996 28.017 0.610434 28.1875 0.937559 28.1875H16.0001H31.0626C31.3897 28.1875 31.6931 28.017 31.8633 27.7376C32.0334 27.4582 32.0456 27.1103 31.8954 26.8197Z" fill="url(#paint1_linear)"/>
</g>
<defs>
<linearGradient id="paint0_linear" x1="16" y1="28.1682" x2="16" y2="3.8125" gradientUnits="userSpaceOnUse">
<stop stop-color="#FFFFD5"/>
<stop offset="1" stop-color="#FFE59A"/>
</linearGradient>
<linearGradient id="paint1_linear" x1="16.0001" y1="28.1875" x2="16.0001" y2="22.5625" gradientUnits="userSpaceOnUse">
<stop stop-color="#FD5900"/>
<stop offset="1" stop-color="#FFDE00"/>
</linearGradient>
<clipPath id="clip0">
<rect width="32" height="32" fill="white"/>
</clipPath>
</defs>
</svg>
