<svg width="32" height="32" viewBox="0 0 32 32" fill="none" xmlns="http://www.w3.org/2000/svg">
<path d="M31.0625 3.8125H27.25C26.7318 3.8125 26.3125 4.23181 26.3125 4.75V5.6875H24.4375V4.75C24.4375 4.23181 24.0182 3.8125 23.5 3.8125H17.875C17.3568 3.8125 16.9375 4.23181 16.9375 4.75V5.6875H15.0625V4.75C15.0625 4.23181 14.6432 3.8125 14.125 3.8125H8.5C7.98181 3.8125 7.5625 4.23181 7.5625 4.75V5.6875H5.6875V4.75C5.6875 4.23181 5.26819 3.8125 4.75 3.8125H0.9375C0.419312 3.8125 0 4.23181 0 4.75V31.0625C0 31.5807 0.419312 32 0.9375 32H31.0625C31.5807 32 32 31.5807 32 31.0625V4.75C32 4.23181 31.5807 3.8125 31.0625 3.8125Z" fill="url(#paint0_linear)"/>
<path d="M8.5 0H4.75C4.23181 0 3.8125 0.419312 3.8125 0.9375V6.625C3.8125 7.14319 4.23181 7.5625 4.75 7.5625H8.5C9.01819 7.5625 9.4375 7.14319 9.4375 6.625V0.9375C9.4375 0.419312 9.01819 0 8.5 0ZM14.125 7.5625H17.875C18.3932 7.5625 18.8125 7.14319 18.8125 6.625V0.9375C18.8125 0.419312 18.3932 0 17.875 0H14.125C13.6068 0 13.1875 0.419312 13.1875 0.9375V6.625C13.1875 7.14319 13.6068 7.5625 14.125 7.5625ZM27.25 0H23.5C22.9818 0 22.5625 0.419312 22.5625 0.9375V6.625C22.5625 7.14319 22.9818 7.5625 23.5 7.5625H27.25C27.7682 7.5625 28.1875 7.14319 28.1875 6.625V0.9375C28.1875 0.419312 27.7682 0 27.25 0ZM11.3125 26.3125H15.0625V22.5625H11.3125V26.3125ZM11.3125 20.6875H15.0625V16.9375H11.3125V20.6875ZM5.6875 25.375C5.6875 25.8999 6.09994 26.3125 6.625 26.3125H9.4375V22.5625H5.6875V25.375ZM5.6875 20.6875H9.4375V16.9375H5.6875V20.6875ZM5.6875 12.25V15.0625H9.4375V11.3125H6.625C6.09994 11.3125 5.6875 11.7249 5.6875 12.25ZM22.5625 26.3125H25.375C25.9001 26.3125 26.3125 25.8999 26.3125 25.375V22.5625H22.5625V26.3125ZM22.5625 20.6875H26.3125V16.9375H22.5625V20.6875ZM25.375 11.3125H22.5625V15.0625H26.3125V12.25C26.3125 11.7249 25.9001 11.3125 25.375 11.3125ZM16.9375 20.6875H20.6875V16.9375H16.9375V20.6875ZM16.9375 26.3125H20.6875V22.5625H16.9375V26.3125ZM11.3125 15.0625H15.0625V11.3125H11.3125V15.0625ZM16.9375 15.0625H20.6875V11.3125H16.9375V15.0625Z" fill="url(#paint1_linear)"/>
<defs>
<linearGradient id="paint0_linear" x1="16" y1="32" x2="16" y2="3.8125" gradientUnits="userSpaceOnUse">
<stop stop-color="#FD5900"/>
<stop offset="1" stop-color="#FFDE00"/>
</linearGradient>
<linearGradient id="paint1_linear" x1="16" y1="26.3125" x2="16" y2="0" gradientUnits="userSpaceOnUse">
<stop stop-color="#FFE59A"/>
<stop offset="1" stop-color="#FFFFD5"/>
</linearGradient>
</defs>
</svg>
