<svg width="32" height="32" viewBox="0 0 32 32" fill="none" xmlns="http://www.w3.org/2000/svg">
<path d="M19.75 26.375H12.25C11.7322 26.375 11.3125 26.7947 11.3125 27.3125C11.3125 29.8972 13.4153 32 16 32C18.5847 32 20.6875 29.8972 20.6875 27.3125C20.6875 26.7947 20.2677 26.375 19.75 26.375Z" fill="url(#paint0_linear)"/>
<path d="M16 0C14.4492 0 13.1875 1.26169 13.1875 2.8125V4.87506C13.1875 5.39281 13.6072 5.81256 14.125 5.81256H17.875C18.3927 5.81256 18.8125 5.39281 18.8125 4.87506V2.8125C18.8125 1.26169 17.5508 0 16 0V0Z" fill="url(#paint1_linear)"/>
<path d="M29.125 26.3751C27.5742 26.3751 26.3125 25.1134 26.3125 23.5626V14.4655C26.3125 8.83856 21.9715 3.72244 15.9375 3.74937C10.161 3.77525 5.6875 8.51144 5.6875 14.0626V23.5626C5.6875 25.1134 4.42581 26.3751 2.875 26.3751C2.35725 26.3751 1.9375 26.7948 1.9375 27.3126C1.9375 27.8303 2.35725 28.2501 2.875 28.2501H29.125C29.6427 28.2501 30.0625 27.8303 30.0625 27.3126C30.0625 26.7948 29.6427 26.3751 29.125 26.3751Z" fill="url(#paint2_linear)"/>
<defs>
<linearGradient id="paint0_linear" x1="16" y1="32" x2="16" y2="26.375" gradientUnits="userSpaceOnUse">
<stop stop-color="#FCBB00"/>
<stop offset="1" stop-color="#FFFFD5"/>
</linearGradient>
<linearGradient id="paint1_linear" x1="16" y1="5.81256" x2="16" y2="0" gradientUnits="userSpaceOnUse">
<stop stop-color="#FFE59A"/>
<stop offset="1" stop-color="#FFE484"/>
</linearGradient>
<linearGradient id="paint2_linear" x1="16" y1="28.2501" x2="16" y2="3.74931" gradientUnits="userSpaceOnUse">
<stop stop-color="#FD5900"/>
<stop offset="1" stop-color="#FFDE00"/>
</linearGradient>
</defs>
</svg>
