<svg width="22" height="22" viewBox="0 0 22 22" fill="none" xmlns="http://www.w3.org/2000/svg">
<path d="M9.16665 15.125L14.6666 11L9.16665 6.87498V15.125ZM11 1.83331C5.93998 1.83331 1.83331 5.93998 1.83331 11C1.83331 16.06 5.93998 20.1666 11 20.1666C16.06 20.1666 20.1666 16.06 20.1666 11C20.1666 5.93998 16.06 1.83331 11 1.83331ZM11 18.3333C6.95748 18.3333 3.66665 15.0425 3.66665 11C3.66665 6.95748 6.95748 3.66665 11 3.66665C15.0425 3.66665 18.3333 6.95748 18.3333 11C18.3333 15.0425 15.0425 18.3333 11 18.3333Z" fill="#565656"/>
</svg>
