<svg width="22" height="22" viewBox="0 0 22 22" fill="none" xmlns="http://www.w3.org/2000/svg">
<path d="M16.5 7.33331C16.5 4.29915 14.0342 1.83331 11 1.83331C7.96584 1.83331 5.50001 4.29915 5.50001 7.33331C5.50001 11.4583 11 17.4166 11 17.4166C11 17.4166 16.5 11.4583 16.5 7.33331ZM9.16668 7.33331C9.16668 6.32498 9.99168 5.49998 11 5.49998C12.0083 5.49998 12.8333 6.32498 12.8333 7.33331C12.8333 8.34165 12.0175 9.16665 11 9.16665C9.99168 9.16665 9.16668 8.34165 9.16668 7.33331ZM4.58334 18.3333V20.1666H17.4167V18.3333H4.58334Z" fill="#565656"/>
</svg>
